<mxfile host="65bd71144e">
    <diagram id="vSb8HlQ2-3Z3tTGI4Wq-" name="Page-1">
        <mxGraphModel dx="2040" dy="1011" grid="1" gridSize="10" guides="1" tooltips="1" connect="1" arrows="1" fold="1" page="0" pageScale="1" pageWidth="850" pageHeight="1100" background="none" math="0" shadow="0">
            <root>
                <mxCell id="0"/>
                <mxCell id="1" parent="0"/>
                <mxCell id="3UFgHvMzXtceYRvhK1Ma-25" value="&lt;h2&gt;&amp;nbsp; &amp;nbsp; &amp;nbsp; &amp;nbsp; &amp;nbsp; &amp;nbsp; &amp;nbsp; &amp;nbsp; &amp;nbsp; &amp;nbsp; &amp;nbsp; &amp;nbsp; &amp;nbsp; &amp;nbsp; &amp;nbsp; USER&lt;/h2&gt;&lt;h3&gt;&amp;nbsp;1.USERNAME&lt;/h3&gt;&lt;div&gt;&lt;h3&gt;&amp;nbsp;2.EMAIL&lt;/h3&gt;&lt;/div&gt;&lt;div&gt;&lt;h3&gt;&amp;nbsp;3.PASSWORD&lt;/h3&gt;&lt;/div&gt;&lt;div&gt;&lt;h3&gt;&amp;nbsp;4.FULLANAME&lt;/h3&gt;&lt;/div&gt;&lt;div&gt;&lt;h3&gt;&amp;nbsp;5.ROLE&amp;nbsp; [CUSTOMER,SCRAP DEALER , ADMIN]&lt;/h3&gt;&lt;/div&gt;&lt;h3&gt;&amp;nbsp;6.AVATAR&lt;/h3&gt;&lt;div&gt;&lt;h3&gt;&amp;nbsp;7.ADDRESS&lt;/h3&gt;&lt;/div&gt;&lt;div&gt;&lt;div&gt;&lt;h3&gt;&amp;nbsp;8.REFRESH TOKEN&lt;/h3&gt;&lt;/div&gt;&lt;div&gt;&lt;div&gt;&lt;h3&gt;9.CREATED AT&lt;/h3&gt;&lt;/div&gt;&lt;/div&gt;&lt;/div&gt;&lt;div&gt;&lt;h3&gt;&lt;br&gt;&lt;/h3&gt;&lt;/div&gt;" style="text;html=1;whiteSpace=wrap;overflow=hidden;rounded=0;" parent="1" vertex="1">
                    <mxGeometry x="-760" y="20" width="350" height="330" as="geometry"/>
                </mxCell>
                <mxCell id="3UFgHvMzXtceYRvhK1Ma-32" value="&lt;h2&gt;&amp;nbsp; &amp;nbsp; &amp;nbsp; &amp;nbsp; &amp;nbsp; &amp;nbsp; &amp;nbsp; &amp;nbsp; &amp;nbsp; &amp;nbsp; &amp;nbsp; &amp;nbsp; &amp;nbsp; &amp;nbsp; &amp;nbsp;SCRAP&lt;/h2&gt;&lt;h3&gt;&amp;nbsp;1.CATEGORY- [ METALS , PLASTIC , ELECTRONICS , GLASS , PAPER]&lt;/h3&gt;&lt;div&gt;&lt;h3&gt;&amp;nbsp;2.SUBCATEGORY&lt;/h3&gt;&lt;/div&gt;&lt;div&gt;&lt;h3&gt;&amp;nbsp;3.PRICE PERUNIT&lt;/h3&gt;&lt;/div&gt;&lt;div&gt;&lt;h3&gt;&amp;nbsp;4. CONDITION -&amp;nbsp; [NEW , USED , DAMAGED]&lt;/h3&gt;&lt;/div&gt;&lt;div&gt;&lt;h3&gt;&amp;nbsp;5.DESCRIPTION&lt;/h3&gt;&lt;/div&gt;&lt;div&gt;&lt;h3&gt;&amp;nbsp;6. IMAGE&lt;/h3&gt;&lt;/div&gt;&lt;div&gt;&lt;h3&gt;&amp;nbsp;&lt;/h3&gt;&lt;/div&gt;&lt;div&gt;&lt;br&gt;&lt;/div&gt;&lt;div&gt;&lt;h3&gt;&lt;br&gt;&lt;/h3&gt;&lt;/div&gt;" style="text;html=1;whiteSpace=wrap;overflow=hidden;rounded=0;" parent="1" vertex="1">
                    <mxGeometry x="405" y="-10" width="485" height="240" as="geometry"/>
                </mxCell>
                <mxCell id="3UFgHvMzXtceYRvhK1Ma-35" value="&lt;h2&gt;CUSTOMER&amp;nbsp;&lt;/h2&gt;" style="text;html=1;align=center;verticalAlign=middle;whiteSpace=wrap;rounded=0;fontStyle=1" parent="1" vertex="1">
                    <mxGeometry x="-250" y="15" width="120" height="60" as="geometry"/>
                </mxCell>
                <mxCell id="3UFgHvMzXtceYRvhK1Ma-37" value="&lt;h2&gt;SCRAP DEALER&amp;nbsp;&lt;/h2&gt;" style="text;html=1;align=center;verticalAlign=middle;whiteSpace=wrap;rounded=0;fontStyle=1" parent="1" vertex="1">
                    <mxGeometry x="-140" y="90" width="120" height="60" as="geometry"/>
                </mxCell>
                <mxCell id="3UFgHvMzXtceYRvhK1Ma-38" value="&lt;h2&gt;ADMIN&lt;/h2&gt;" style="text;html=1;align=center;verticalAlign=middle;whiteSpace=wrap;rounded=0;fontStyle=1" parent="1" vertex="1">
                    <mxGeometry x="-230" y="215" width="120" height="60" as="geometry"/>
                </mxCell>
                <mxCell id="3UFgHvMzXtceYRvhK1Ma-39" value="" style="ellipse;whiteSpace=wrap;html=1;fillColor=none;" parent="1" vertex="1">
                    <mxGeometry x="-260" width="140" height="90" as="geometry"/>
                </mxCell>
                <mxCell id="3UFgHvMzXtceYRvhK1Ma-40" value="&lt;h2&gt;SCRAP DEALER&amp;nbsp;&lt;/h2&gt;" style="text;html=1;align=center;verticalAlign=middle;whiteSpace=wrap;rounded=0;fontStyle=1" parent="1" vertex="1">
                    <mxGeometry x="-140" y="90" width="120" height="60" as="geometry"/>
                </mxCell>
                <mxCell id="3UFgHvMzXtceYRvhK1Ma-41" value="" style="ellipse;whiteSpace=wrap;html=1;fillColor=none;" parent="1" vertex="1">
                    <mxGeometry x="-230" y="210" width="140" height="90" as="geometry"/>
                </mxCell>
                <mxCell id="3UFgHvMzXtceYRvhK1Ma-42" value="" style="ellipse;whiteSpace=wrap;html=1;fillColor=none;" parent="1" vertex="1">
                    <mxGeometry x="-150" y="80" width="140" height="90" as="geometry"/>
                </mxCell>
                <mxCell id="3UFgHvMzXtceYRvhK1Ma-43" value="" style="endArrow=classic;html=1;rounded=0;entryX=0;entryY=0.5;entryDx=0;entryDy=0;exitX=1.004;exitY=0.339;exitDx=0;exitDy=0;exitPerimeter=0;" parent="1" source="3UFgHvMzXtceYRvhK1Ma-46" target="3UFgHvMzXtceYRvhK1Ma-42" edge="1">
                    <mxGeometry width="50" height="50" relative="1" as="geometry">
                        <mxPoint x="-390" y="130" as="sourcePoint"/>
                        <mxPoint x="-250" y="130" as="targetPoint"/>
                    </mxGeometry>
                </mxCell>
                <mxCell id="3UFgHvMzXtceYRvhK1Ma-46" value="" style="rounded=1;whiteSpace=wrap;html=1;fillColor=none;" parent="1" vertex="1">
                    <mxGeometry x="-790" y="30" width="370" height="340" as="geometry"/>
                </mxCell>
                <mxCell id="3UFgHvMzXtceYRvhK1Ma-47" value="" style="endArrow=classic;html=1;rounded=0;entryX=0;entryY=0.5;entryDx=0;entryDy=0;exitX=1.001;exitY=0.21;exitDx=0;exitDy=0;exitPerimeter=0;" parent="1" source="3UFgHvMzXtceYRvhK1Ma-46" target="3UFgHvMzXtceYRvhK1Ma-39" edge="1">
                    <mxGeometry width="50" height="50" relative="1" as="geometry">
                        <mxPoint x="-395" y="75" as="sourcePoint"/>
                        <mxPoint x="-180" y="75" as="targetPoint"/>
                        <Array as="points"/>
                    </mxGeometry>
                </mxCell>
                <mxCell id="3UFgHvMzXtceYRvhK1Ma-48" value="" style="endArrow=classic;html=1;rounded=0;entryX=0;entryY=0.5;entryDx=0;entryDy=0;exitX=0.998;exitY=0.556;exitDx=0;exitDy=0;exitPerimeter=0;" parent="1" source="3UFgHvMzXtceYRvhK1Ma-46" target="3UFgHvMzXtceYRvhK1Ma-38" edge="1">
                    <mxGeometry width="50" height="50" relative="1" as="geometry">
                        <mxPoint x="-386" y="207" as="sourcePoint"/>
                        <mxPoint x="-260" y="45" as="targetPoint"/>
                        <Array as="points"/>
                    </mxGeometry>
                </mxCell>
                <mxCell id="3UFgHvMzXtceYRvhK1Ma-49" value="" style="rounded=1;whiteSpace=wrap;html=1;fillColor=none;strokeColor=default;glass=0;" parent="1" vertex="1">
                    <mxGeometry x="370" y="10" width="520" height="220" as="geometry"/>
                </mxCell>
                <mxCell id="3UFgHvMzXtceYRvhK1Ma-54" value="&lt;h3 style=&quot;margin-top: 0px;&quot;&gt;&lt;span style=&quot;font-size: 12px;&quot;&gt;&amp;nbsp; &amp;nbsp; &amp;nbsp; &amp;nbsp; &amp;nbsp; &amp;nbsp; &amp;nbsp; &amp;nbsp;&amp;nbsp;&lt;u&gt;METAL&amp;nbsp;&lt;/u&gt;&lt;/span&gt;&lt;/h3&gt;&lt;div&gt;&lt;span style=&quot;white-space: pre;&quot;&gt;&#9;&lt;/span&gt;ALLUMINIUM&lt;br&gt;&lt;/div&gt;&lt;div&gt;&lt;span style=&quot;white-space: pre;&quot;&gt;&#9;&lt;/span&gt;COPPER&lt;br&gt;&lt;/div&gt;&lt;div&gt;&lt;span style=&quot;white-space: pre;&quot;&gt;&#9;&lt;/span&gt;STEEL&lt;br&gt;&lt;/div&gt;&lt;div&gt;&lt;span style=&quot;white-space: pre;&quot;&gt;&#9;&lt;/span&gt;BRASS&lt;br&gt;&lt;/div&gt;" style="text;html=1;whiteSpace=wrap;overflow=hidden;rounded=0;" parent="1" vertex="1">
                    <mxGeometry x="1030" y="-40" width="180" height="100" as="geometry"/>
                </mxCell>
                <mxCell id="3UFgHvMzXtceYRvhK1Ma-55" value="&lt;h3 style=&quot;margin-top: 0px;&quot;&gt;&lt;span style=&quot;font-size: 12px;&quot;&gt;&amp;nbsp; &amp;nbsp; &amp;nbsp; &amp;nbsp; &amp;nbsp; &amp;nbsp; &amp;nbsp; &amp;nbsp; &lt;u&gt;PALSTIC&lt;/u&gt;&lt;/span&gt;&lt;/h3&gt;&lt;div&gt;&lt;span style=&quot;white-space: pre;&quot;&gt;&#9;&lt;/span&gt;PET&lt;br&gt;&lt;/div&gt;&lt;div&gt;&lt;span style=&quot;white-space: pre;&quot;&gt;&#9;&lt;/span&gt;HDPE&lt;br&gt;&lt;/div&gt;&lt;div&gt;&lt;span style=&quot;white-space: pre;&quot;&gt;&#9;&lt;/span&gt;PVC&lt;br&gt;&lt;/div&gt;&lt;div&gt;&lt;span style=&quot;white-space: pre;&quot;&gt;&#9;&lt;/span&gt;LDPE&lt;br&gt;&lt;/div&gt;" style="text;html=1;whiteSpace=wrap;overflow=hidden;rounded=0;" parent="1" vertex="1">
                    <mxGeometry x="1165" y="80" width="180" height="100" as="geometry"/>
                </mxCell>
                <mxCell id="3UFgHvMzXtceYRvhK1Ma-56" value="&lt;h3 style=&quot;margin-top: 0px;&quot;&gt;&lt;span style=&quot;font-size: 12px;&quot;&gt;&amp;nbsp; &amp;nbsp; &amp;nbsp; &amp;nbsp; &amp;nbsp; &amp;nbsp; &amp;nbsp; &amp;nbsp; &lt;u&gt;ELECTRONICS&lt;/u&gt;&lt;/span&gt;&lt;/h3&gt;&lt;div&gt;&lt;span style=&quot;white-space: pre;&quot;&gt;&#9;&lt;/span&gt;LAPRTOPS&lt;br&gt;&lt;/div&gt;&lt;div&gt;&lt;span style=&quot;white-space: pre;&quot;&gt;&#9;&lt;/span&gt;DESKTOPS&lt;br&gt;&lt;/div&gt;&lt;div&gt;&lt;span style=&quot;white-space: pre;&quot;&gt;&#9;&lt;/span&gt;COMPUTER ACCESSORIES&lt;/div&gt;&lt;div&gt;&lt;span style=&quot;white-space: pre;&quot;&gt;&#9;&lt;/span&gt;SMARTPHONE&lt;br&gt;&lt;/div&gt;&lt;div&gt;&lt;span style=&quot;white-space: pre;&quot;&gt;&#9;&lt;/span&gt;TABLET&lt;br&gt;&lt;/div&gt;&lt;div&gt;&lt;span style=&quot;white-space: pre;&quot;&gt;&#9;&lt;/span&gt;REFRIGERATOR&lt;br&gt;&lt;/div&gt;&lt;div&gt;&lt;span style=&quot;white-space: pre;&quot;&gt;&#9;&lt;/span&gt;WASHING MACHINE / DRYER&lt;br&gt;&lt;/div&gt;&lt;div&gt;&lt;span style=&quot;white-space: pre;&quot;&gt;&#9;&lt;/span&gt;MIRCROWAVE / INDUCTION&lt;br&gt;&lt;/div&gt;" style="text;html=1;whiteSpace=wrap;overflow=hidden;rounded=0;" parent="1" vertex="1">
                    <mxGeometry x="955" y="190" width="200" height="170" as="geometry"/>
                </mxCell>
                <mxCell id="3UFgHvMzXtceYRvhK1Ma-57" value="&lt;h3 style=&quot;margin-top: 0px;&quot;&gt;&lt;span style=&quot;font-size: 12px;&quot;&gt;&amp;nbsp; &amp;nbsp; &amp;nbsp; &amp;nbsp; &amp;nbsp; &amp;nbsp; &amp;nbsp; &amp;nbsp; &lt;u&gt;GLASS&lt;/u&gt;&lt;/span&gt;&lt;/h3&gt;&lt;div&gt;&lt;span style=&quot;white-space: pre;&quot;&gt;&#9;&lt;/span&gt;BOTTLES&lt;br&gt;&lt;/div&gt;&lt;div&gt;&lt;span style=&quot;white-space: pre;&quot;&gt;&#9;&lt;/span&gt;WINDOWS&lt;br&gt;&lt;/div&gt;&lt;div&gt;&lt;span style=&quot;white-space: pre;&quot;&gt;&#9;&lt;/span&gt;JARS&lt;/div&gt;" style="text;html=1;whiteSpace=wrap;overflow=hidden;rounded=0;" parent="1" vertex="1">
                    <mxGeometry x="755" y="320" width="180" height="100" as="geometry"/>
                </mxCell>
                <mxCell id="3UFgHvMzXtceYRvhK1Ma-58" value="&lt;h3 style=&quot;margin-top: 0px;&quot;&gt;&lt;span style=&quot;font-size: 12px;&quot;&gt;&amp;nbsp; &amp;nbsp; &amp;nbsp; &amp;nbsp; &amp;nbsp; &amp;nbsp; &amp;nbsp; &amp;nbsp; &lt;u&gt;PAPER&lt;/u&gt;&lt;/span&gt;&lt;/h3&gt;&lt;div&gt;&lt;span style=&quot;white-space: pre;&quot;&gt;&#9;&lt;/span&gt;OFFICE PAPER&lt;br&gt;&lt;/div&gt;&lt;div&gt;&lt;span style=&quot;white-space: pre;&quot;&gt;&#9;&lt;/span&gt;CARDBOARD&lt;br&gt;&lt;/div&gt;&lt;div&gt;&lt;span style=&quot;white-space: pre;&quot;&gt;&#9;&lt;/span&gt;NEWSPAPER&lt;/div&gt;" style="text;html=1;whiteSpace=wrap;overflow=hidden;rounded=0;" parent="1" vertex="1">
                    <mxGeometry x="895" y="395" width="180" height="100" as="geometry"/>
                </mxCell>
                <mxCell id="3UFgHvMzXtceYRvhK1Ma-59" value="" style="rounded=1;whiteSpace=wrap;html=1;fillColor=none;" parent="1" vertex="1">
                    <mxGeometry x="755" y="315" width="140" height="110" as="geometry"/>
                </mxCell>
                <mxCell id="3UFgHvMzXtceYRvhK1Ma-60" value="" style="rounded=1;whiteSpace=wrap;html=1;fillColor=none;" parent="1" vertex="1">
                    <mxGeometry x="1045" y="-40" width="130" height="100" as="geometry"/>
                </mxCell>
                <mxCell id="3UFgHvMzXtceYRvhK1Ma-61" value="" style="rounded=1;whiteSpace=wrap;html=1;fillColor=none;" parent="1" vertex="1">
                    <mxGeometry x="1175" y="80" width="140" height="110" as="geometry"/>
                </mxCell>
                <mxCell id="3UFgHvMzXtceYRvhK1Ma-63" value="" style="rounded=1;whiteSpace=wrap;html=1;fillColor=none;" parent="1" vertex="1">
                    <mxGeometry x="975" y="180" width="190" height="190" as="geometry"/>
                </mxCell>
                <mxCell id="3UFgHvMzXtceYRvhK1Ma-64" value="" style="rounded=1;whiteSpace=wrap;html=1;fillColor=none;" parent="1" vertex="1">
                    <mxGeometry x="975" y="180" width="190" height="190" as="geometry"/>
                </mxCell>
                <mxCell id="3UFgHvMzXtceYRvhK1Ma-65" value="" style="rounded=1;whiteSpace=wrap;html=1;fillColor=none;" parent="1" vertex="1">
                    <mxGeometry x="905" y="390" width="140" height="110" as="geometry"/>
                </mxCell>
                <mxCell id="3UFgHvMzXtceYRvhK1Ma-73" value="" style="endArrow=none;html=1;rounded=0;" parent="1" edge="1">
                    <mxGeometry width="50" height="50" relative="1" as="geometry">
                        <mxPoint x="545" y="90.0011940298507" as="sourcePoint"/>
                        <mxPoint x="925" y="90" as="targetPoint"/>
                    </mxGeometry>
                </mxCell>
                <mxCell id="3UFgHvMzXtceYRvhK1Ma-76" value="" style="endArrow=classic;html=1;rounded=0;entryX=0;entryY=0.5;entryDx=0;entryDy=0;" parent="1" edge="1">
                    <mxGeometry width="50" height="50" relative="1" as="geometry">
                        <mxPoint x="925" y="90" as="sourcePoint"/>
                        <mxPoint x="1045" y="10" as="targetPoint"/>
                    </mxGeometry>
                </mxCell>
                <mxCell id="3UFgHvMzXtceYRvhK1Ma-77" value="" style="endArrow=classic;html=1;rounded=0;entryX=0;entryY=0.75;entryDx=0;entryDy=0;" parent="1" target="3UFgHvMzXtceYRvhK1Ma-55" edge="1">
                    <mxGeometry width="50" height="50" relative="1" as="geometry">
                        <mxPoint x="925" y="90" as="sourcePoint"/>
                        <mxPoint x="975" y="110" as="targetPoint"/>
                    </mxGeometry>
                </mxCell>
                <mxCell id="3UFgHvMzXtceYRvhK1Ma-78" value="" style="endArrow=classic;html=1;rounded=0;entryX=0;entryY=0.75;entryDx=0;entryDy=0;" parent="1" target="3UFgHvMzXtceYRvhK1Ma-55" edge="1">
                    <mxGeometry width="50" height="50" relative="1" as="geometry">
                        <mxPoint x="925" y="90" as="sourcePoint"/>
                        <mxPoint x="1165" y="155" as="targetPoint"/>
                        <Array as="points">
                            <mxPoint x="1045" y="120"/>
                        </Array>
                    </mxGeometry>
                </mxCell>
                <mxCell id="3UFgHvMzXtceYRvhK1Ma-79" value="" style="endArrow=classic;html=1;rounded=0;entryX=0.158;entryY=0;entryDx=0;entryDy=0;entryPerimeter=0;" parent="1" target="3UFgHvMzXtceYRvhK1Ma-64" edge="1">
                    <mxGeometry width="50" height="50" relative="1" as="geometry">
                        <mxPoint x="925" y="90" as="sourcePoint"/>
                        <mxPoint x="985" y="140" as="targetPoint"/>
                    </mxGeometry>
                </mxCell>
                <mxCell id="3UFgHvMzXtceYRvhK1Ma-81" value="" style="endArrow=classic;html=1;rounded=0;" parent="1" edge="1">
                    <mxGeometry width="50" height="50" relative="1" as="geometry">
                        <mxPoint x="925" y="90" as="sourcePoint"/>
                        <mxPoint x="945" y="390" as="targetPoint"/>
                    </mxGeometry>
                </mxCell>
                <mxCell id="3UFgHvMzXtceYRvhK1Ma-85" value="" style="endArrow=classic;html=1;rounded=0;entryX=0.75;entryY=0;entryDx=0;entryDy=0;" parent="1" target="3UFgHvMzXtceYRvhK1Ma-59" edge="1">
                    <mxGeometry width="50" height="50" relative="1" as="geometry">
                        <mxPoint x="925" y="100" as="sourcePoint"/>
                        <mxPoint x="915" y="250" as="targetPoint"/>
                    </mxGeometry>
                </mxCell>
                <mxCell id="Cnkosuvdeoo5rGyjw5pp-2" value="&lt;h2 style=&quot;margin-top: 0px;&quot;&gt;&lt;span style=&quot;&quot;&gt;&#9;&lt;/span&gt;FEEDBACK&lt;br&gt;&lt;/h2&gt;&lt;h3&gt;&lt;span style=&quot;background-color: initial; font-size: 14.04px;&quot;&gt;1.TRANSACTION ID&lt;/span&gt;&lt;/h3&gt;&lt;div&gt;&lt;span style=&quot;font-size: 14.04px; font-weight: 700;&quot;&gt;2. CUSTOMER ID&lt;/span&gt;&lt;/div&gt;&lt;div&gt;&lt;span style=&quot;font-size: 14.04px; font-weight: 700;&quot;&gt;&lt;br&gt;&lt;/span&gt;&lt;/div&gt;&lt;div&gt;&lt;span style=&quot;font-size: 14.04px; font-weight: 700;&quot;&gt;3.MESSAGE&lt;/span&gt;&lt;br&gt;&lt;/div&gt;&lt;div&gt;&lt;h3&gt;4.RATING&lt;/h3&gt;&lt;/div&gt;&lt;div&gt;&lt;h3&gt;5.CREATED AT&lt;/h3&gt;&lt;/div&gt;" style="text;html=1;whiteSpace=wrap;overflow=hidden;rounded=0;" parent="1" vertex="1">
                    <mxGeometry x="-550" y="550" width="220" height="210" as="geometry"/>
                </mxCell>
                <mxCell id="Cnkosuvdeoo5rGyjw5pp-3" value="" style="rounded=1;whiteSpace=wrap;html=1;fillColor=none;" parent="1" vertex="1">
                    <mxGeometry x="-590" y="545" width="220" height="220" as="geometry"/>
                </mxCell>
                <mxCell id="Cnkosuvdeoo5rGyjw5pp-7" value="&lt;h2 style=&quot;margin-top: 0px;&quot;&gt;&lt;span style=&quot;white-space: pre;&quot;&gt;&#9;&lt;/span&gt;TRANSACTION&lt;br&gt;&lt;/h2&gt;&lt;h3&gt;1.TRANSACTION ID&lt;/h3&gt;&lt;div&gt;&lt;h3&gt;2.REQUESTED ID&lt;/h3&gt;&lt;/div&gt;&lt;div&gt;&lt;h3&gt;3.CUSTOMER ID&lt;/h3&gt;&lt;/div&gt;&lt;div&gt;&lt;h3&gt;4.DEALER ID&lt;/h3&gt;&lt;/div&gt;&lt;div&gt;&lt;h3&gt;5.SCRAP DETAILS&lt;/h3&gt;&lt;/div&gt;&lt;div&gt;&lt;h3&gt;4.SUBTOATAL&lt;/h3&gt;&lt;/div&gt;&lt;div&gt;&lt;h3&gt;6.DISCOUNT&lt;/h3&gt;&lt;/div&gt;&lt;div&gt;&lt;h3&gt;7.TAX&lt;/h3&gt;&lt;/div&gt;&lt;div&gt;&lt;h3&gt;8.TOTAL AMOUNT&lt;/h3&gt;&lt;/div&gt;&lt;div&gt;&lt;h3&gt;9.STATUS -&amp;gt;[ PENDING,PAID,FAILED ]&amp;nbsp;&lt;/h3&gt;&lt;/div&gt;&lt;div&gt;&lt;h3&gt;10.PAYMENT METHOD&amp;nbsp; -&amp;gt;[ CARD , CASH , UPI ]&lt;/h3&gt;&lt;/div&gt;&lt;div&gt;&lt;h3&gt;11.CREATED AT&lt;/h3&gt;&lt;/div&gt;" style="text;html=1;whiteSpace=wrap;overflow=hidden;rounded=0;" parent="1" vertex="1">
                    <mxGeometry y="530" width="350" height="410" as="geometry"/>
                </mxCell>
                <mxCell id="Cnkosuvdeoo5rGyjw5pp-9" value="" style="rounded=1;whiteSpace=wrap;html=1;fillColor=none;arcSize=20;" parent="1" vertex="1">
                    <mxGeometry x="-10" y="510" width="340" height="450" as="geometry"/>
                </mxCell>
                <mxCell id="Cnkosuvdeoo5rGyjw5pp-10" value="&lt;h2 style=&quot;margin-top: 0px;&quot;&gt;&lt;span style=&quot;white-space: pre;&quot;&gt;&#9;&lt;/span&gt;REQUEST&lt;br&gt;&lt;/h2&gt;&lt;h3&gt;1.REQUEST ID&lt;/h3&gt;&lt;div&gt;&lt;h3&gt;2.CUSTOMER ID&lt;/h3&gt;&lt;/div&gt;&lt;div&gt;&lt;h3&gt;3.SCRAP ID&lt;/h3&gt;&lt;/div&gt;&lt;div&gt;&lt;h3&gt;4.PICKUP LACATION&lt;/h3&gt;&lt;/div&gt;&lt;div&gt;&lt;h3&gt;5.QUANTITY&lt;/h3&gt;&lt;/div&gt;&lt;div&gt;&lt;h3&gt;4.STATUS - [&lt;span style=&quot;background-color: initial; font-size: 12px;&quot; class=&quot;hljs-string&quot;&gt;'pending'&lt;/span&gt;&lt;span style=&quot;background-color: initial; font-size: 12px;&quot;&gt;, &lt;/span&gt;&lt;span style=&quot;background-color: initial; font-size: 12px;&quot; class=&quot;hljs-string&quot;&gt;'approved'&lt;/span&gt;&lt;span style=&quot;background-color: initial; font-size: 12px;&quot;&gt;, &lt;/span&gt;&lt;span style=&quot;background-color: initial; font-size: 12px;&quot; class=&quot;hljs-string&quot;&gt;'in-progress'&lt;/span&gt;&lt;span style=&quot;background-color: initial; font-size: 12px;&quot;&gt;, &lt;/span&gt;&lt;span style=&quot;background-color: initial; font-size: 12px;&quot; class=&quot;hljs-string&quot;&gt;'completed'&lt;/span&gt;&lt;span style=&quot;background-color: initial; font-size: 12px;&quot;&gt;, &lt;/span&gt;&lt;span style=&quot;background-color: initial; font-size: 12px;&quot; class=&quot;hljs-string&quot;&gt;'canceled'&lt;/span&gt;&lt;span style=&quot;background-color: initial; font-size: 12px;&quot;&gt;],&lt;/span&gt;&lt;/h3&gt;&lt;/div&gt;&lt;div&gt;&lt;h3&gt;6.ASSIGNED DEALER&lt;/h3&gt;&lt;/div&gt;&lt;div&gt;&lt;h3&gt;7.CREATED AT&lt;/h3&gt;&lt;/div&gt;&lt;div&gt;&lt;h3&gt;8.SCHEDULED PICKUP DAT&lt;span style=&quot;background-color: initial; font-size: 12px; font-weight: normal;&quot;&gt;&amp;nbsp;&lt;/span&gt;&lt;/h3&gt;&lt;/div&gt;&lt;div&gt;&lt;h3&gt;9. COMPLETED AT&lt;/h3&gt;&lt;/div&gt;" style="text;html=1;whiteSpace=wrap;overflow=hidden;rounded=0;" parent="1" vertex="1">
                    <mxGeometry x="855" y="640" width="550" height="410" as="geometry"/>
                </mxCell>
                <mxCell id="Cnkosuvdeoo5rGyjw5pp-14" value="SCRAP CATEGORY" style="rounded=1;whiteSpace=wrap;html=1;" parent="1" vertex="1">
                    <mxGeometry x="410" y="600" width="120" height="60" as="geometry"/>
                </mxCell>
                <mxCell id="Cnkosuvdeoo5rGyjw5pp-15" value="PRICE PER UNIT" style="rounded=1;whiteSpace=wrap;html=1;" parent="1" vertex="1">
                    <mxGeometry x="410" y="700" width="120" height="60" as="geometry"/>
                </mxCell>
                <mxCell id="Cnkosuvdeoo5rGyjw5pp-16" value="QUANTITY" style="rounded=1;whiteSpace=wrap;html=1;" parent="1" vertex="1">
                    <mxGeometry x="410" y="820" width="120" height="60" as="geometry"/>
                </mxCell>
                <mxCell id="Cnkosuvdeoo5rGyjw5pp-18" value="" style="endArrow=none;html=1;rounded=0;" parent="1" edge="1">
                    <mxGeometry width="50" height="50" relative="1" as="geometry">
                        <mxPoint x="130" y="700" as="sourcePoint"/>
                        <mxPoint x="360" y="690" as="targetPoint"/>
                    </mxGeometry>
                </mxCell>
                <mxCell id="Cnkosuvdeoo5rGyjw5pp-20" value="" style="endArrow=classic;html=1;rounded=0;entryX=0;entryY=0.383;entryDx=0;entryDy=0;entryPerimeter=0;" parent="1" target="Cnkosuvdeoo5rGyjw5pp-14" edge="1">
                    <mxGeometry width="50" height="50" relative="1" as="geometry">
                        <mxPoint x="360" y="690" as="sourcePoint"/>
                        <mxPoint x="410" y="640" as="targetPoint"/>
                    </mxGeometry>
                </mxCell>
                <mxCell id="Cnkosuvdeoo5rGyjw5pp-21" value="" style="endArrow=classic;html=1;rounded=0;entryX=0;entryY=0;entryDx=0;entryDy=0;" parent="1" target="Cnkosuvdeoo5rGyjw5pp-15" edge="1">
                    <mxGeometry width="50" height="50" relative="1" as="geometry">
                        <mxPoint x="360" y="690" as="sourcePoint"/>
                        <mxPoint x="420" y="680" as="targetPoint"/>
                    </mxGeometry>
                </mxCell>
                <mxCell id="Cnkosuvdeoo5rGyjw5pp-22" value="" style="endArrow=classic;html=1;rounded=0;entryX=0;entryY=0.25;entryDx=0;entryDy=0;" parent="1" target="Cnkosuvdeoo5rGyjw5pp-16" edge="1">
                    <mxGeometry width="50" height="50" relative="1" as="geometry">
                        <mxPoint x="360" y="690" as="sourcePoint"/>
                        <mxPoint x="430" y="780" as="targetPoint"/>
                    </mxGeometry>
                </mxCell>
                <mxCell id="y8MT2HjzntGgnZXzQ1WJ-2" value="" style="rounded=1;whiteSpace=wrap;html=1;fillColor=none;" parent="1" vertex="1">
                    <mxGeometry x="815" y="620" width="500" height="420" as="geometry"/>
                </mxCell>
            </root>
        </mxGraphModel>
    </diagram>
</mxfile>